<svg width="1000" height="305" viewBox="0 0 1000 305" fill="none" xmlns="http://www.w3.org/2000/svg">
<g clip-path="url(#clip0_128_58)">
<path d="M593.62 126.097C609.13 126.097 623.817 135.572 626.917 156.045H557.843C560.733 138.08 574.181 126.097 593.62 126.097ZM624.709 186.334C619.434 194.546 609.237 200.863 595.277 200.863C576.041 200.863 561.353 190.333 557.843 171.743H644.502C644.92 169.078 645.131 166.385 645.134 163.689C645.134 134.776 624.893 109.162 593.632 109.162C561.372 109.162 539.448 132.913 539.448 163.486C539.448 194.439 561.587 217.811 594.872 217.811C615.556 217.811 631.275 208.513 640.371 194.439L624.709 186.334Z" fill="#006BFF"/>
<path d="M530.934 64.3436H512.944V215.12H530.934V64.3436Z" fill="#006BFF"/>
<path d="M745.235 151.712V215.114H727.239V152.741C727.239 135.806 717.523 126.305 701.595 126.305C685.048 126.305 671.606 136.014 671.606 160.385V215.114H653.61V111.859H671.606V126.729C679.26 114.544 690.633 109.174 705.131 109.174C729.326 109.174 745.254 125.282 745.254 151.724" fill="#006BFF"/>
<path d="M844.45 163.48C844.45 142.413 828.522 126.508 807.636 126.508C786.951 126.508 771.03 142.413 771.03 163.48C771.03 184.547 786.951 200.453 807.636 200.453C828.51 200.453 844.45 184.547 844.45 163.48ZM862.439 64.3436V215.12H844.45V197.351C836.176 209.985 822.943 217.805 805.358 217.805C776.609 217.805 753.034 194.047 753.034 163.48C753.034 132.913 776.609 109.155 805.358 109.155C822.937 109.155 836.176 117.001 844.45 129.603V64.3436H862.439Z" fill="#006BFF"/>
<path d="M894.94 64.3436H876.95V215.12H894.94V64.3436Z" fill="#006BFF"/>
<path d="M480.875 163.48C480.875 142.413 464.953 126.508 444.06 126.508C423.382 126.508 407.455 142.413 407.455 163.48C407.455 184.547 423.382 200.453 444.06 200.453C464.934 200.453 480.875 184.547 480.875 163.48ZM498.871 111.859V215.114H480.875V197.351C472.601 209.985 459.368 217.805 441.79 217.805C413.04 217.805 389.459 194.047 389.459 163.48C389.459 132.913 413.04 109.155 441.79 109.155C459.368 109.155 472.601 117.001 480.875 129.603V111.859H498.871Z" fill="#006BFF"/>
<path d="M362.772 195.241C353.561 198.635 343.619 199.552 333.942 197.898C324.265 196.245 315.193 192.08 307.637 185.822C300.08 179.563 294.303 171.43 290.887 162.239C287.47 153.048 286.533 143.121 288.169 133.454C289.806 123.787 293.959 114.719 300.211 107.161C306.464 99.602 314.596 93.8176 323.793 90.3875C332.99 86.9574 342.929 86.0022 352.612 87.6177C362.296 89.2331 371.384 93.3624 378.965 99.5916C382.126 102.196 384.986 105.146 387.492 108.385L403.059 97.0143C393.99 85.1746 381.605 76.2903 367.474 71.4874C353.343 66.6846 338.102 66.1795 323.684 70.0361C309.265 73.8927 296.318 81.9374 286.483 93.1505C276.647 104.364 270.367 118.24 268.438 133.022C266.509 147.803 269.018 162.824 275.646 176.18C282.275 189.536 292.725 200.626 305.672 208.045C318.619 215.463 333.48 218.876 348.372 217.85C363.263 216.825 377.515 211.407 389.32 202.284L378.959 185.924C374.118 189.905 368.648 193.054 362.772 195.241Z" fill="#006BFF"/>
<path d="M981.788 111.859V170.467C981.788 189.417 970.75 201.419 953.899 201.419C937.048 201.419 924.846 189.417 924.846 170.467V111.859H906.642V168.71C906.642 198.501 925.232 217.843 953.899 217.843C978.695 217.843 982.566 202.177 982.566 201.785V222.871C982.566 243.761 973.464 255.561 954.481 255.561C947.7 255.594 941.139 253.165 936.018 248.725C930.898 244.286 927.568 238.139 926.649 231.43L910.374 237.115C912.703 247.055 918.334 255.914 926.349 262.249C934.364 268.584 944.291 272.022 954.513 272.003C983.952 272.003 1000.06 252.655 1000.06 222.871V111.859H981.788Z" fill="#006BFF"/>
<path d="M146.485 172.014C139.571 178.142 130.937 185.766 115.281 185.766H105.92C94.5908 185.766 84.2866 181.654 76.9111 174.2C69.7064 166.917 65.7403 156.949 65.7403 146.128V133.336C65.7403 122.515 69.7064 112.547 76.9111 105.264C84.2866 97.8103 94.5908 93.7044 105.92 93.7044H115.281C130.956 93.7044 139.571 101.322 146.485 107.45C153.664 113.767 159.857 119.288 176.373 119.288C178.892 119.287 181.407 119.086 183.894 118.687L183.837 118.542C182.848 116.089 181.687 113.708 180.364 111.417L169.326 92.321C164.349 83.7126 157.19 76.5643 148.569 71.5945C139.948 66.6247 130.169 64.0085 120.215 64.0089H98.133C88.1789 64.0085 78.4001 66.6247 69.7794 71.5945C61.1586 76.5643 53.9997 83.7126 49.0221 92.321L37.9841 111.417C33.0082 120.026 30.3887 129.792 30.3887 139.732C30.3887 149.672 33.0082 159.438 37.9841 168.047L49.0221 187.143C53.9997 195.751 61.1586 202.9 69.7794 207.87C78.4001 212.839 88.1789 215.456 98.133 215.455H120.215C130.169 215.456 139.948 212.839 148.569 207.87C157.19 202.9 164.349 195.751 169.326 187.143L180.364 168.079C181.687 165.788 182.848 163.407 183.837 160.953L183.894 160.814C181.408 160.402 178.893 160.191 176.373 160.183C159.857 160.183 153.664 165.672 146.485 172.021" fill="#006BFF"/>
<path d="M115.282 105.296H105.92C88.6766 105.296 77.3477 117.595 77.3477 133.336V146.128C77.3477 161.869 88.6766 174.168 105.92 174.168H115.282C140.406 174.168 138.433 148.585 176.373 148.585C179.968 148.581 183.555 148.911 187.088 149.57C188.239 143.062 188.239 136.402 187.088 129.894C183.554 130.55 179.967 130.88 176.373 130.879C138.42 130.879 140.406 105.296 115.282 105.296Z" fill="#006BFF"/>
<path d="M208.886 158.919C202.425 154.194 194.974 150.995 187.094 149.564C187.094 149.634 187.094 149.69 187.094 149.754C186.416 153.525 185.356 157.218 183.932 160.777C190.441 161.783 196.616 164.323 201.947 168.186C201.947 168.237 201.915 168.3 201.896 168.357C195.035 190.543 180.433 209.535 160.742 221.884C141.051 234.233 117.578 239.118 94.5869 235.654C71.5956 232.189 50.6114 220.604 35.4462 203.003C20.281 185.401 11.9408 162.952 11.9408 139.732C11.9408 116.512 20.281 94.0625 35.4462 76.4613C50.6114 58.86 71.5956 47.2748 94.5869 43.8102C117.578 40.3456 141.051 45.2315 160.742 57.5802C180.433 69.9289 195.035 88.9213 201.896 111.107C201.896 111.164 201.928 111.227 201.947 111.278C196.617 115.141 190.441 117.679 183.932 118.681C185.355 122.244 186.414 125.941 187.094 129.717C187.091 129.776 187.091 129.835 187.094 129.894C194.973 128.465 202.424 125.268 208.886 120.545C215.097 115.952 213.895 110.766 212.953 107.696C205.273 82.8211 188.912 61.523 166.842 47.6718C144.773 33.8206 118.46 28.3357 92.6849 32.2137C66.9097 36.0916 43.383 49.0752 26.3798 68.805C9.37661 88.5348 0.0253906 113.702 0.0253906 139.732C0.0253906 165.762 9.37661 190.929 26.3798 210.659C43.383 230.389 66.9097 243.372 92.6849 247.25C118.46 251.128 144.773 245.643 166.842 231.792C188.912 217.941 205.273 196.643 212.953 171.768C213.895 168.698 215.097 163.512 208.886 158.919Z" fill="#006BFF"/>
<path d="M183.894 118.681C181.408 119.093 178.893 119.305 176.373 119.313C159.857 119.313 153.664 113.823 146.491 107.475C139.571 101.348 130.956 93.7233 115.281 93.7233H105.92C94.5844 93.7233 84.2865 97.8355 76.911 105.289C69.7063 112.573 65.7402 122.541 65.7402 133.361V146.153C65.7402 156.974 69.7063 166.942 76.911 174.225C84.2865 181.679 94.5844 185.785 105.92 185.785H115.281C130.956 185.785 139.571 178.167 146.491 172.039C153.664 165.723 159.857 160.202 176.373 160.202C178.892 160.202 181.407 160.403 183.894 160.802C185.321 157.245 186.381 153.551 187.056 149.779C187.06 149.716 187.06 149.652 187.056 149.589C183.522 148.935 179.935 148.607 176.341 148.61C138.388 148.61 140.374 174.2 115.25 174.2H105.888C88.6448 174.2 77.3158 161.895 77.3158 146.153V133.336C77.3158 117.595 88.6448 105.296 105.888 105.296H115.25C140.374 105.296 138.401 130.873 176.341 130.873C179.936 130.879 183.523 130.551 187.056 129.893C187.056 129.837 187.056 129.78 187.056 129.717C186.376 125.941 185.317 122.244 183.894 118.681Z" fill="#0AE8F0"/>
<path d="M183.894 118.681C181.408 119.093 178.893 119.305 176.373 119.313C159.857 119.313 153.664 113.823 146.491 107.475C139.571 101.348 130.956 93.7233 115.281 93.7233H105.92C94.5844 93.7233 84.2865 97.8355 76.911 105.289C69.7063 112.573 65.7402 122.541 65.7402 133.361V146.153C65.7402 156.974 69.7063 166.942 76.911 174.225C84.2865 181.679 94.5844 185.785 105.92 185.785H115.281C130.956 185.785 139.571 178.167 146.491 172.039C153.664 165.723 159.857 160.202 176.373 160.202C178.892 160.202 181.407 160.403 183.894 160.802C185.321 157.245 186.381 153.551 187.056 149.779C187.06 149.716 187.06 149.652 187.056 149.589C183.522 148.935 179.935 148.607 176.341 148.61C138.388 148.61 140.374 174.2 115.25 174.2H105.888C88.6448 174.2 77.3158 161.895 77.3158 146.153V133.336C77.3158 117.595 88.6448 105.296 105.888 105.296H115.25C140.374 105.296 138.401 130.873 176.341 130.873C179.936 130.879 183.523 130.551 187.056 129.893C187.056 129.837 187.056 129.78 187.056 129.717C186.376 125.941 185.317 122.244 183.894 118.681Z" fill="#0AE8F0"/>
</g>
<defs>
<clipPath id="clip0_128_58">
<rect width="1000" height="305" fill="white"/>
</clipPath>
</defs>
</svg>
